<svg width="358" height="134" viewBox="0 0 358 134" fill="none" xmlns="http://www.w3.org/2000/svg">
<g filter="url(#filter0_d_115_456)">
<path d="M43.3965 16.9766V29.1621H42.2012C41.4928 26.3509 40.707 24.3366 39.8438 23.1191C38.9805 21.8796 37.7962 20.8945 36.291 20.1641C35.4499 19.7656 33.9779 19.5664 31.875 19.5664H28.5215V54.2969C28.5215 56.599 28.6432 58.0378 28.8867 58.6133C29.1523 59.1888 29.6504 59.6979 30.3809 60.1406C31.1335 60.5612 32.1517 60.7715 33.4355 60.7715H34.9297V62H11.3555V60.7715H12.8496C14.1556 60.7715 15.207 60.5391 16.0039 60.0742C16.5794 59.7643 17.0332 59.2331 17.3652 58.4805C17.6087 57.9492 17.7305 56.5547 17.7305 54.2969V19.5664H14.4766C11.444 19.5664 9.24154 20.2083 7.86914 21.4922C5.94336 23.2852 4.72591 25.8418 4.2168 29.1621H2.95508V16.9766H43.3965ZM70.7559 49.1836H54.8516L52.959 53.5664C52.3392 55.0273 52.0293 56.2337 52.0293 57.1855C52.0293 58.4473 52.5384 59.377 53.5566 59.9746C54.1543 60.3288 55.6263 60.5944 57.9727 60.7715V62H42.998V60.7715C44.6139 60.528 45.9421 59.8639 46.9824 58.7793C48.0228 57.6725 49.3066 55.4036 50.834 51.9727L66.9375 16.0469H67.5684L83.8047 52.9688C85.3542 56.4661 86.627 58.6686 87.623 59.5762C88.3757 60.2624 89.4382 60.6608 90.8105 60.7715V62H69.0293V60.7715H69.9258C71.6745 60.7715 72.903 60.528 73.6113 60.041C74.0983 59.6868 74.3418 59.1777 74.3418 58.5137C74.3418 58.1152 74.2754 57.7057 74.1426 57.2852C74.0983 57.0859 73.7663 56.2559 73.1465 54.7949L70.7559 49.1836ZM69.627 46.7266L62.9199 31.2207L56.0137 46.7266H69.627ZM140.35 18.2051C137.915 18.2051 136.343 18.5924 135.635 19.3672C134.926 20.1419 134.572 21.5807 134.572 23.6836V54.9941C134.572 57.3848 134.926 58.9342 135.635 59.6426C136.343 60.3509 137.97 60.7272 140.516 60.7715V62H117.805V60.7715C119.62 60.7715 120.893 60.6276 121.623 60.3398C122.376 60.0299 122.918 59.5319 123.25 58.8457C123.582 58.1595 123.748 56.9421 123.748 55.1934V19.8984H112.924V33.3457C112.924 38.9681 112.78 43.2513 112.492 46.1953C112.227 49.1393 111.463 51.9395 110.201 54.5957C108.962 57.2298 107.357 59.2109 105.387 60.5391C103.417 61.8672 101.236 62.5312 98.8457 62.5312C96.6764 62.5312 94.9941 61.9668 93.7988 60.8379C92.6035 59.6868 92.0059 58.2702 92.0059 56.5879C92.0059 55.1934 92.3711 54.0534 93.1016 53.168C93.832 52.2604 94.8835 51.8066 96.2559 51.8066C98.8014 51.8066 100.207 53.3893 100.473 56.5547C100.583 57.9714 101.137 58.6797 102.133 58.6797C103.527 58.6797 105.01 57.75 106.582 55.8906C108.154 54.0091 109.194 51.4303 109.703 48.1543C110.212 44.8783 110.467 40.1302 110.467 33.9102V25.4102C110.467 22.9974 110.312 21.3926 110.002 20.5957C109.714 19.7767 109.139 19.1901 108.275 18.8359C107.434 18.4596 105.918 18.2493 103.727 18.2051V16.9766H140.35V18.2051ZM170.564 49.1836H154.66L152.768 53.5664C152.148 55.0273 151.838 56.2337 151.838 57.1855C151.838 58.4473 152.347 59.377 153.365 59.9746C153.963 60.3288 155.435 60.5944 157.781 60.7715V62H142.807V60.7715C144.423 60.528 145.751 59.8639 146.791 58.7793C147.831 57.6725 149.115 55.4036 150.643 51.9727L166.746 16.0469H167.377L183.613 52.9688C185.163 56.4661 186.436 58.6686 187.432 59.5762C188.184 60.2624 189.247 60.6608 190.619 60.7715V62H168.838V60.7715H169.734C171.483 60.7715 172.712 60.528 173.42 60.041C173.907 59.6868 174.15 59.1777 174.15 58.5137C174.15 58.1152 174.084 57.7057 173.951 57.2852C173.907 57.0859 173.575 56.2559 172.955 54.7949L170.564 49.1836ZM169.436 46.7266L162.729 31.2207L155.822 46.7266H169.436ZM210.01 40.3516V54.2969C210.01 56.599 210.132 58.0378 210.375 58.6133C210.641 59.1888 211.139 59.6979 211.869 60.1406C212.622 60.5612 213.629 60.7715 214.891 60.7715H216.385V62H192.844V60.7715H194.338C195.644 60.7715 196.695 60.5391 197.492 60.0742C198.068 59.7643 198.51 59.2331 198.82 58.4805C199.064 57.9492 199.186 56.5547 199.186 54.2969V24.6797C199.186 22.3776 199.064 20.9388 198.82 20.3633C198.577 19.7878 198.079 19.2897 197.326 18.8691C196.596 18.4264 195.6 18.2051 194.338 18.2051H192.844V16.9766H216.385V18.2051H214.891C213.585 18.2051 212.533 18.4375 211.736 18.9023C211.161 19.2122 210.707 19.7435 210.375 20.4961C210.132 21.0273 210.01 22.4219 210.01 24.6797V37.4297H225.914V24.6797C225.914 22.3776 225.792 20.9388 225.549 20.3633C225.305 19.7878 224.807 19.2897 224.055 18.8691C223.302 18.4264 222.295 18.2051 221.033 18.2051H219.572V16.9766H243.08V18.2051H241.619C240.291 18.2051 239.24 18.4375 238.465 18.9023C237.889 19.2122 237.436 19.7435 237.104 20.4961C236.86 21.0273 236.738 22.4219 236.738 24.6797V54.2969C236.738 56.599 236.86 58.0378 237.104 58.6133C237.347 59.1888 237.845 59.6979 238.598 60.1406C239.35 60.5612 240.357 60.7715 241.619 60.7715H243.08V62H219.572V60.7715H221.033C222.361 60.7715 223.413 60.5391 224.188 60.0742C224.763 59.7643 225.217 59.2331 225.549 58.4805C225.792 57.9492 225.914 56.5547 225.914 54.2969V40.3516H210.01ZM287.24 16.9766V29.1621H286.045C285.337 26.3509 284.551 24.3366 283.688 23.1191C282.824 21.8796 281.64 20.8945 280.135 20.1641C279.294 19.7656 277.822 19.5664 275.719 19.5664H272.365V54.2969C272.365 56.599 272.487 58.0378 272.73 58.6133C272.996 59.1888 273.494 59.6979 274.225 60.1406C274.977 60.5612 275.995 60.7715 277.279 60.7715H278.773V62H255.199V60.7715H256.693C257.999 60.7715 259.051 60.5391 259.848 60.0742C260.423 59.7643 260.877 59.2331 261.209 58.4805C261.452 57.9492 261.574 56.5547 261.574 54.2969V19.5664H258.32C255.288 19.5664 253.085 20.2083 251.713 21.4922C249.787 23.2852 248.57 25.8418 248.061 29.1621H246.799V16.9766H287.24ZM308.225 37.4297H314.168C320.587 37.4297 325.247 38.5586 328.146 40.8164C331.046 43.0742 332.496 46.0846 332.496 49.8477C332.496 52.4154 331.755 54.6289 330.271 56.4883C328.811 58.3477 326.962 59.7311 324.727 60.6387C322.513 61.5462 319.27 62 314.998 62H290.859V60.7715C293.648 60.7272 295.43 60.362 296.205 59.6758C297.002 58.9674 297.4 57.4401 297.4 55.0938V25.1777C297.4 21.9902 297.068 20.0423 296.404 19.334C295.762 18.6257 294.036 18.2493 291.225 18.2051V16.9766H314.4V18.2051C312.275 18.2272 310.859 18.4264 310.15 18.8027C309.464 19.179 308.966 19.6439 308.656 20.1973C308.368 20.7507 308.225 22.123 308.225 24.3145V37.4297ZM308.225 40.3516V53.9316C308.225 56.0788 308.523 57.5951 309.121 58.4805C309.719 59.3438 310.826 59.7754 312.441 59.7754C315.031 59.7754 316.979 58.901 318.285 57.1523C319.613 55.4036 320.277 53.2233 320.277 50.6113C320.277 48.0879 319.68 45.974 318.484 44.2695C317.289 42.543 315.95 41.4583 314.467 41.0156C313.006 40.5729 310.925 40.3516 308.225 40.3516ZM355.141 60.7715V62H331.633V60.7715H333.094C334.51 60.7715 335.573 60.5391 336.281 60.0742C336.99 59.6094 337.443 59.056 337.643 58.4141C337.864 57.75 337.975 56.3776 337.975 54.2969V24.6797C337.975 22.5768 337.886 21.2266 337.709 20.6289C337.532 20.0091 337.056 19.4557 336.281 18.9688C335.529 18.4596 334.466 18.2051 333.094 18.2051H331.633V16.9766H355.141V18.2051H353.68C352.263 18.2051 351.201 18.4375 350.492 18.9023C349.784 19.3672 349.319 19.9316 349.098 20.5957C348.898 21.2376 348.799 22.599 348.799 24.6797V54.2969C348.799 56.3997 348.887 57.7611 349.064 58.3809C349.242 58.9785 349.706 59.5319 350.459 60.041C351.234 60.528 352.307 60.7715 353.68 60.7715H355.141Z" fill="white"/>
</g>
<rect x="5" y="78" width="335" height="56" fill="url(#paint0_radial_115_456)"/>
<path d="M102.831 104.594C100.883 104.579 99.9154 104.572 99.9274 104.572C98.9295 104.718 97.4207 104.943 95.401 105.248C95.401 105.728 95.401 106.208 95.401 106.688C95.401 107.779 95.2748 110.483 95.0223 114.802C94.9742 115.66 94.6977 116.336 94.1928 116.831C93.7359 117.267 93.1829 117.485 92.5337 117.485C91.8244 117.485 91.2233 117.23 90.7304 116.721C90.1894 116.14 89.9489 115.369 90.009 114.409C90.2495 110.221 90.3697 107.648 90.3697 106.688C90.3697 103.692 90.4418 100.21 90.5861 96.2399C90.8265 89.5654 90.9468 86.0828 90.9468 85.7919C90.9828 84.9049 91.2533 84.2069 91.7583 83.698C92.2271 83.2327 92.7922 83 93.4534 83C94.1507 83 94.7398 83.2472 95.2207 83.7416C95.7496 84.3087 96.0021 85.0576 95.9781 85.9883C95.8578 88.9983 95.7016 93.4698 95.5092 99.4027C96.495 99.2136 97.8956 99.0101 99.711 98.7919C100.528 98.821 101.737 98.8356 103.336 98.8356C104.189 94.6477 105.788 91.1359 108.133 88.3003C110.802 85.0721 113.933 83.4581 117.528 83.4581C125.908 83.4581 130.097 88.1186 130.097 97.4396C130.097 102.398 128.919 106.884 126.563 110.898C123.846 115.536 120.299 117.856 115.923 117.856C112.461 117.856 109.491 116.685 107.015 114.344C104.382 111.843 102.987 108.593 102.831 104.594ZM117.528 89.3909C114.847 89.3909 112.551 90.9614 110.639 94.1023C108.848 97.0397 107.952 100.297 107.952 103.874C107.952 106.288 108.728 108.251 110.279 109.763C111.769 111.218 113.651 111.945 115.923 111.945C118.568 111.945 120.774 110.374 122.541 107.233C124.164 104.354 124.976 101.089 124.976 97.4396C124.976 94.3859 124.411 92.2701 123.281 91.0923C122.199 89.9581 120.281 89.3909 117.528 89.3909Z" fill="#0916D7"/>
<path d="M147.662 117.332C146.94 117.332 146.339 117.063 145.858 116.525C145.378 115.987 145.137 115.311 145.137 114.497C145.137 113.232 145.113 110.963 145.065 107.691C144.837 107.691 144.638 107.691 144.47 107.691C141.885 107.691 139.378 108.004 136.95 108.629C136.938 109.196 136.872 110.221 136.752 111.705C136.655 112.97 136.607 114.017 136.607 114.846C136.607 115.66 136.367 116.336 135.886 116.874C135.417 117.412 134.822 117.681 134.101 117.681C133.379 117.681 132.778 117.412 132.297 116.874C131.828 116.336 131.594 115.653 131.594 114.824C131.594 114.329 131.648 113.661 131.756 112.817C131.877 111.959 131.937 111.283 131.937 110.789C131.937 109.974 131.919 108.753 131.883 107.124C131.847 105.481 131.828 104.252 131.828 103.438C131.828 102.58 131.828 101.315 131.828 99.6426C131.84 97.9704 131.847 96.7053 131.847 95.8473C131.847 95.033 132.081 94.3568 132.55 93.8188C133.031 93.2808 133.632 93.0117 134.353 93.0117C135.074 93.0117 135.676 93.2808 136.156 93.8188C136.637 94.3568 136.878 95.033 136.878 95.8473C136.878 96.778 136.89 97.9413 136.914 99.3372C136.95 101.271 136.968 102.42 136.968 102.784C139.505 102.202 142.18 101.947 144.993 102.02V101.54C144.993 100.799 145.017 99.7371 145.065 98.3557C145.113 96.9743 145.137 95.9273 145.137 95.2148C145.137 94.4004 145.378 93.7243 145.858 93.1862C146.339 92.6482 146.94 92.3792 147.662 92.3792C148.383 92.3792 148.978 92.6482 149.447 93.1862C149.928 93.7243 150.168 94.4004 150.168 95.2148C150.168 95.9418 150.144 96.9961 150.096 98.3775C150.048 99.7589 150.024 100.813 150.024 101.54C150.024 103.023 150.048 105.183 150.096 108.018C150.144 110.854 150.168 113.013 150.168 114.497C150.168 115.311 149.928 115.987 149.447 116.525C148.978 117.063 148.383 117.332 147.662 117.332Z" fill="#0916D7"/>
<path d="M173.053 114.955C173.053 115.754 172.812 116.423 172.331 116.961C171.851 117.514 171.255 117.79 170.546 117.79C169.825 117.79 169.224 117.514 168.743 116.961C168.262 116.423 168.022 115.754 168.022 114.955C168.022 114.082 168.058 112.773 168.13 111.029C168.202 109.269 168.238 107.953 168.238 107.081C168.238 106.281 168.208 105.437 168.148 104.55C165.912 108.2 163.904 110.883 162.125 112.599C160.514 114.14 159.317 115.369 158.536 116.285C157.754 117.187 156.913 117.638 156.011 117.638C155.338 117.638 154.737 117.434 154.208 117.027C153.595 116.532 153.288 115.842 153.288 114.955C153.288 111.101 153.228 107.081 153.108 102.893C152.976 98.5447 152.91 96.4144 152.91 96.5017C152.91 95.6728 153.144 94.9894 153.613 94.4513C154.082 93.8988 154.689 93.6225 155.434 93.6225C156.781 93.6225 157.604 94.4659 157.905 96.1527C157.953 96.3853 158.007 97.7959 158.067 100.384L158.247 108.695C159.798 107.008 161.451 104.921 163.207 102.435C163.615 101.853 165.112 99.6208 167.697 95.7383C168.55 94.4441 169.5 93.797 170.546 93.797C171.255 93.797 171.851 94.0733 172.331 94.6258C172.812 95.1639 173.053 95.8328 173.053 96.6325C173.053 98.1449 173.077 100.413 173.125 103.438C173.173 106.463 173.197 108.731 173.197 110.243C173.197 110.767 173.173 111.552 173.125 112.599C173.077 113.646 173.053 114.431 173.053 114.955Z" fill="#0916D7"/>
<path d="M190.419 111.923C190.503 111.036 190.545 109.967 190.545 108.716C190.545 107.699 190.515 106.172 190.455 104.136C190.395 102.086 190.365 100.551 190.365 99.5336C190.365 97.9776 190.539 96.6471 190.888 95.5419C191.381 94.0006 192.156 93.2299 193.214 93.2299C193.887 93.2299 194.483 93.4989 194.999 94.0369C195.528 94.5604 195.793 95.2293 195.793 96.0436C195.793 96.3054 195.751 96.618 195.667 96.9815C195.474 97.7086 195.378 98.6393 195.378 99.7735C195.378 100.719 195.408 102.151 195.468 104.07C195.54 105.975 195.577 107.4 195.577 108.346C195.577 109.713 195.54 110.876 195.468 111.836C196.935 112.141 197.668 113.072 197.668 114.628C197.668 115.122 197.626 115.871 197.542 116.874C197.47 117.878 197.434 118.626 197.434 119.121C197.434 119.95 197.194 120.633 196.713 121.171C196.244 121.724 195.649 122 194.927 122C194.206 122 193.605 121.724 193.124 121.171C192.655 120.633 192.421 119.95 192.421 119.121C192.421 118.67 192.439 118.11 192.475 117.441C191.838 117.456 190.948 117.507 189.806 117.594C188.736 117.667 187.81 117.703 187.029 117.703C186.259 117.703 185.105 117.667 183.566 117.594C182.039 117.521 180.891 117.485 180.122 117.485C179.449 117.485 178.86 117.201 178.355 116.634C177.862 116.067 177.615 115.398 177.615 114.628C177.615 114.642 177.729 113.115 177.958 110.047C178.198 106.804 178.319 102.035 178.319 95.7383C178.319 94.9094 178.553 94.226 179.022 93.6879C179.503 93.1499 180.104 92.8809 180.825 92.8809C181.547 92.8809 182.142 93.1499 182.611 93.6879C183.091 94.226 183.332 94.9094 183.332 95.7383C183.332 102.573 183.158 107.982 182.809 111.966C183.482 112.01 184.222 112.032 185.027 112.032C185.676 112.032 186.596 112.003 187.786 111.945C188.808 111.916 189.686 111.908 190.419 111.923Z" fill="#0916D7"/>
<path d="M213.646 116.831C212.468 116.831 211.662 116.176 211.23 114.867C210.929 113.937 210.16 112.417 208.921 110.309C207.587 108.026 206.715 106.884 206.306 106.884C206.21 106.87 205.729 106.862 204.864 106.862L204.846 110.832C204.846 111.021 204.852 111.341 204.864 111.792C204.876 112.243 204.882 112.592 204.882 112.839C204.882 115.674 204.01 117.092 202.267 117.092C201.594 117.092 201.011 116.867 200.518 116.416C199.989 115.907 199.724 115.246 199.724 114.431C199.724 113.791 199.748 112.795 199.796 111.443C199.844 110.076 199.868 109.065 199.868 108.411C199.868 107.117 199.826 105.183 199.742 102.609C199.658 100.035 199.616 98.1085 199.616 96.8289C199.616 94.5313 200.476 93.3825 202.195 93.3825C202.88 93.3825 203.463 93.6225 203.944 94.1023C204.461 94.6258 204.719 95.2802 204.719 96.0654C204.719 97.127 204.75 98.8574 204.81 101.257C206.096 101.271 206.986 100.951 207.479 100.297C207.563 100.195 207.978 99.2791 208.723 97.5487C209.781 95.0621 211.145 93.8188 212.816 93.8188C213.369 93.8188 213.971 94.0224 214.62 94.4295C215.401 94.9094 215.792 95.4911 215.792 96.1745C215.792 96.8434 215.606 97.4105 215.233 97.8758C214.872 98.3412 214.409 98.5738 213.844 98.5738C213.532 98.5738 213.081 99.2427 212.492 100.581C212.179 101.366 211.861 102.151 211.536 102.936C211.284 103.46 211.019 103.903 210.743 104.267C212.005 105.517 213.207 107.153 214.349 109.174C215.588 111.327 216.207 112.999 216.207 114.191C216.207 115.006 215.918 115.667 215.341 116.176C214.848 116.612 214.283 116.831 213.646 116.831Z" fill="#0916D7"/>
<path d="M237.612 114.955C237.612 115.754 237.372 116.423 236.891 116.961C236.41 117.514 235.815 117.79 235.106 117.79C234.384 117.79 233.783 117.514 233.302 116.961C232.822 116.423 232.581 115.754 232.581 114.955C232.581 114.082 232.617 112.773 232.689 111.029C232.761 109.269 232.797 107.953 232.797 107.081C232.797 106.281 232.767 105.437 232.707 104.55C230.471 108.2 228.463 110.883 226.684 112.599C225.073 114.14 223.877 115.369 223.096 116.285C222.314 117.187 221.472 117.638 220.571 117.638C219.898 117.638 219.296 117.434 218.767 117.027C218.154 116.532 217.848 115.842 217.848 114.955C217.848 111.101 217.788 107.081 217.667 102.893C217.535 98.5447 217.469 96.4144 217.469 96.5017C217.469 95.6728 217.704 94.9894 218.172 94.4513C218.641 93.8988 219.248 93.6225 219.994 93.6225C221.34 93.6225 222.164 94.4659 222.464 96.1527C222.512 96.3853 222.567 97.7959 222.627 100.384L222.807 108.695C224.358 107.008 226.011 104.921 227.766 102.435C228.175 101.853 229.672 99.6208 232.256 95.7383C233.11 94.4441 234.06 93.797 235.106 93.797C235.815 93.797 236.41 94.0733 236.891 94.6258C237.372 95.1639 237.612 95.8328 237.612 96.6325C237.612 98.1449 237.636 100.413 237.685 103.438C237.733 106.463 237.757 108.731 237.757 110.243C237.757 110.767 237.733 111.552 237.685 112.599C237.636 113.646 237.612 114.431 237.612 114.955Z" fill="#0916D7"/>
<path d="M250.633 117.529C247.759 117.529 245.409 116.7 243.581 115.042C241.562 113.21 240.552 110.629 240.552 107.299C240.552 103.62 241.351 100.508 242.95 97.9631C244.73 95.1421 247.128 93.7315 250.146 93.7315C252.237 93.7315 253.975 94.1387 255.357 94.953C257.173 96.0291 258.08 97.7013 258.08 99.9698C258.08 101.569 257.341 102.987 255.862 104.223C255.189 104.79 253.836 105.619 251.805 106.71L245.727 109.96C246.304 110.716 247.002 111.283 247.819 111.661C248.637 112.039 249.575 112.228 250.633 112.228C252.243 112.228 253.608 111.828 254.726 111.029C255.724 110.316 256.523 109.96 257.125 109.96C258.375 109.96 259 110.694 259 112.163C259 113.82 257.996 115.173 255.988 116.22C254.305 117.092 252.52 117.529 250.633 117.529ZM250.146 99.0101C249.028 99.0101 248.072 99.4608 247.278 100.362C246.485 101.264 245.848 102.616 245.367 104.419C246.725 103.707 248.078 103.002 249.424 102.304C251.047 101.417 252.34 100.595 253.301 99.8389C252.496 99.2864 251.444 99.0101 250.146 99.0101Z" fill="#0916D7"/>
<defs>
<filter id="filter0_d_115_456" x="0.955078" y="16.0469" width="356.186" height="52.4844" filterUnits="userSpaceOnUse" color-interpolation-filters="sRGB">
<feFlood flood-opacity="0" result="BackgroundImageFix"/>
<feColorMatrix in="SourceAlpha" type="matrix" values="0 0 0 0 0 0 0 0 0 0 0 0 0 0 0 0 0 0 127 0" result="hardAlpha"/>
<feOffset dy="4"/>
<feGaussianBlur stdDeviation="1"/>
<feComposite in2="hardAlpha" operator="out"/>
<feColorMatrix type="matrix" values="0 0 0 0 0 0 0 0 0 0 0 0 0 0 0 0 0 0 1 0"/>
<feBlend mode="normal" in2="BackgroundImageFix" result="effect1_dropShadow_115_456"/>
<feBlend mode="normal" in="SourceGraphic" in2="effect1_dropShadow_115_456" result="shape"/>
</filter>
<radialGradient id="paint0_radial_115_456" cx="0" cy="0" r="1" gradientUnits="userSpaceOnUse" gradientTransform="translate(172.5 106) rotate(89.1277) scale(57.0066 146.859)">
<stop offset="0.623997" stop-color="#FCEBFE"/>
<stop offset="1" stop-color="white" stop-opacity="0"/>
</radialGradient>
</defs>
</svg>
